<svg width="39" height="39" viewBox="0 0 39 39" fill="none" xmlns="http://www.w3.org/2000/svg">
<g id="3 - Bold / users-three">
<path id="users-three-Bold" d="M19.5 21.125C23.9801 21.125 27.625 17.4801 27.625 13C27.625 8.51988 23.9801 4.875 19.5 4.875C15.0199 4.875 11.375 8.51988 11.375 13C11.375 17.4801 15.0199 21.125 19.5 21.125ZM19.5 8.125C22.1877 8.125 24.375 10.3123 24.375 13C24.375 15.6877 22.1877 17.875 19.5 17.875C16.8123 17.875 14.625 15.6877 14.625 13C14.625 10.3123 16.8123 8.125 19.5 8.125ZM30.875 28.275V29.6822C30.875 31.1269 30.3469 32.5114 29.3882 33.5823C29.068 33.9414 28.6228 34.1234 28.1775 34.1234C27.7908 34.1234 27.4023 33.9869 27.0936 33.709C26.4257 33.1094 26.3688 32.0824 26.9668 31.4146C27.3926 30.9401 27.625 30.3241 27.625 29.6822V28.275C27.625 26.4323 26.4063 24.8397 24.6626 24.401C24.4498 24.3506 24.2303 24.3734 24.0548 24.4742C21.2143 26.0553 17.7677 26.0439 14.9646 24.4855C14.7712 24.375 14.5486 24.3474 14.3422 24.401C12.5937 24.8397 11.375 26.4323 11.375 28.275V29.6822C11.375 30.3257 11.609 30.9401 12.0332 31.4146C12.6312 32.0824 12.5743 33.1094 11.9064 33.709C11.2402 34.307 10.2147 34.2518 9.61184 33.5823C8.65309 32.5114 8.125 31.1252 8.125 29.6822V28.275C8.125 24.9389 10.3545 22.0497 13.5476 21.2502C14.5616 20.9885 15.6617 21.1397 16.5603 21.6564C18.3625 22.6558 20.6164 22.667 22.4575 21.6449C23.3399 21.1379 24.4417 20.9983 25.4573 21.2502C28.6455 22.0497 30.875 24.9405 30.875 28.275ZM27.7192 6.23677C28.0166 5.39015 28.9494 4.94813 29.7911 5.24713C32.3846 6.16201 34.125 8.6255 34.125 11.375C34.125 13.2226 33.3352 14.9889 31.9589 16.2191C31.6501 16.4969 31.2601 16.6334 30.875 16.6334C30.4298 16.6334 29.9845 16.4514 29.6644 16.0923C29.0664 15.4244 29.1233 14.3958 29.7911 13.7978C30.4801 13.1819 30.875 12.298 30.875 11.375C30.875 10.0002 30.004 8.76856 28.7089 8.30869C27.8622 8.01131 27.4186 7.08177 27.7192 6.23677ZM35.75 24.1052V25.2785C35.75 26.1772 35.0236 26.9035 34.125 26.9035C33.2264 26.9035 32.5 26.1772 32.5 25.2785V24.1052C32.5 22.6947 31.5689 21.4744 30.2348 21.1397C29.3638 20.9203 28.8357 20.0379 29.0534 19.1685C29.2728 18.2959 30.1632 17.7661 31.0245 17.9871C33.8081 18.6858 35.75 21.2013 35.75 24.1052ZM7.04114 16.9423C5.66476 15.7089 4.875 13.9424 4.875 12.098C4.875 9.35016 6.61699 6.88504 9.20886 5.97017C10.0506 5.67117 10.9834 6.11318 11.2808 6.95981C11.5814 7.80643 11.1378 8.73435 10.2911 9.03172C8.99601 9.48997 8.125 10.7233 8.125 12.098C8.125 13.021 8.51986 13.9036 9.20886 14.5211C9.87674 15.1207 9.93362 16.1477 9.33562 16.8155C9.01387 17.1747 8.57029 17.3567 8.12341 17.3567C7.73829 17.3567 7.34989 17.2202 7.04114 16.9423ZM8.76691 21.8611C7.43278 22.1959 6.5 23.4162 6.5 24.8267V26C6.5 26.8986 5.772 27.625 4.875 27.625C3.978 27.625 3.25 26.8986 3.25 26V24.8267C3.25 21.9244 5.19185 19.4073 7.97385 18.7085C8.83997 18.4924 9.72724 19.0174 9.94499 19.8884C10.1644 20.7594 9.63628 21.6418 8.76691 21.8611Z" fill="#A41313"/>
</g>
</svg>
